<svg width="63" height="50" viewBox="0 0 63 50" xmlns="http://www.w3.org/2000/svg">
<path d="M23.9645 0C21.895 0 20.1893 1.69434 20.1893 3.75V7.5H3.83043C1.76099 7.5 0.0552999 9.19434 0.0552999 11.25V22.1094C-0.0184333 22.3535 -0.0184333 22.6074 0.0552999 22.8516V46.25C0.0552999 48.3057 1.76099 50 3.83043 50H59.1991C61.2685 50 62.9742 48.3057 62.9742 46.25V22.7344C63.0086 22.5684 63.0086 22.3926 62.9742 22.2266V11.25C62.9742 9.19434 61.2685 7.5 59.1991 7.5H42.8401V3.75C42.8401 1.69434 41.1345 0 39.065 0H23.9645ZM23.9645 2.5H39.065C39.7729 2.5 40.3234 3.04688 40.3234 3.75V7.5H22.7061V3.75C22.7061 3.04688 23.2566 2.5 23.9645 2.5ZM3.83043 10H59.1991C59.9069 10 60.4574 10.5469 60.4574 11.25V21.25H51.6488C51.6488 19.8828 50.5084 18.75 49.132 18.75H42.8401C41.4638 18.75 40.3234 19.8828 40.3234 21.25H22.7061C22.7061 19.8828 21.5657 18.75 20.1893 18.75H13.8975C12.5211 18.75 11.3807 19.8828 11.3807 21.25H2.57206V11.25C2.57206 10.5469 3.1226 10 3.83043 10ZM13.8975 21.25H20.1893V22.1094C20.1156 22.3535 20.1156 22.6074 20.1893 22.8516V23.75H13.8975V22.7344C13.9319 22.5684 13.9319 22.3926 13.8975 22.2266V21.25ZM42.8401 21.25H49.132V22.1094C49.0583 22.3535 49.0583 22.6074 49.132 22.8516V23.75H42.8401V22.7344C42.8746 22.5684 42.8746 22.3926 42.8401 22.2266V21.25ZM2.57206 23.75H11.3807C11.3807 25.1172 12.5211 26.25 13.8975 26.25H20.1893C21.5657 26.25 22.7061 25.1172 22.7061 23.75H40.3234C40.3234 25.1172 41.4638 26.25 42.8401 26.25H49.132C50.5084 26.25 51.6488 25.1172 51.6488 23.75H60.4574V46.25C60.4574 46.9531 59.9069 47.5 59.1991 47.5H3.83043C3.1226 47.5 2.57206 46.9531 2.57206 46.25V23.75Z"/>
</svg>
