<svg width="63" height="51" viewBox="0 0 63 51" xmlns="http://www.w3.org/2000/svg">
<path d="M50.6917 19.0547L28.2305 6.38855" stroke-width="2" stroke-linecap="round" stroke-linejoin="round"/>
<path d="M61.9224 35.1619V15.6379C61.9215 14.782 61.6905 13.9413 61.2524 13.2003C60.8144 12.4592 60.1848 11.8439 59.4267 11.4159L41.9569 1.65393C41.1981 1.22553 40.3374 1 39.4612 1C38.585 1 37.7243 1.22553 36.9655 1.65393L19.4957 11.4159C18.7377 11.8439 18.108 12.4592 17.67 13.2003C17.232 13.9413 17.0009 14.782 17 15.6379V35.1619C17.0009 36.0178 17.232 36.8585 17.67 37.5995C18.108 38.3406 18.7377 38.956 19.4957 39.3839L36.9655 49.1459C37.7243 49.5743 38.585 49.7998 39.4612 49.7998C40.3374 49.7998 41.1981 49.5743 41.9569 49.1459L59.4267 39.3839C60.1848 38.956 60.8144 38.3406 61.2524 37.5995C61.6905 36.8585 61.9215 36.0178 61.9224 35.1619Z" stroke-width="2" stroke-linecap="round" stroke-linejoin="round"/>
<path d="M17.6738 13.0999L39.4612 25.4243L61.2486 13.0999" stroke-width="2" stroke-linecap="round" stroke-linejoin="round"/>
<path d="M39.4619 50.0001V25.3999" stroke-width="2" stroke-linecap="round" stroke-linejoin="round"/>
</svg>
