<svg width="63" height="50" viewBox="0 0 63 50" xmlns="http://www.w3.org/2000/svg">
<path d="M10 0V13.3333H12.2083V50H60.7917V13.3333H63V0H10ZM12.2083 2.22222H60.7917V11.1111H12.2083V2.22222ZM14.4167 13.3333H58.5833V47.7778H14.4167V13.3333ZM28.2188 17.7778C26.0967 17.7778 24.3542 19.5312 24.3542 21.6667C24.3542 23.8021 26.0967 25.5556 28.2188 25.5556H44.7812C46.9033 25.5556 48.6458 23.8021 48.6458 21.6667C48.6458 19.5312 46.9033 17.7778 44.7812 17.7778H28.2188ZM28.2188 20H44.7812C45.7086 20 46.4375 20.7335 46.4375 21.6667C46.4375 22.5998 45.7086 23.3333 44.7812 23.3333H28.2188C27.2914 23.3333 26.5625 22.5998 26.5625 21.6667C26.5625 20.7335 27.2914 20 28.2188 20Z"/>
</svg>
