<svg width="60" height="69" viewBox="0 0 60 69" fill="none" xmlns="http://www.w3.org/2000/svg">
<path d="M31.5 6C15.7565 6 3 18.7565 3 34.5C3 50.2435 15.7565 63 31.5 63C47.2435 63 60 50.2435 60 34.5C60 18.7565 47.2435 6 31.5 6ZM31.5 60.6296C17.0993 60.6296 5.37043 48.9144 5.37043 34.5C5.37043 20.0993 17.0856 8.37043 31.5 8.37043C45.9007 8.37043 57.6296 20.0856 57.6296 34.5C57.6296 48.9007 45.9007 60.6296 31.5 60.6296Z" fill="#0E151B"/>
<path d="M31.5005 34.5004H18.3467V36.8708H33.871V16.9619H31.5005V34.5004Z" fill="#0E151B"/>
</svg>
