<svg width="16" height="17" viewBox="0 0 16 17" fill="none" xmlns="http://www.w3.org/2000/svg">
<path fill-rule="evenodd" clip-rule="evenodd" d="M0 3.86361C0 3.43684 0.358172 3.09088 0.8 3.09088H15.2C15.6418 3.09088 16 3.43684 16 3.86361C16 4.29037 15.6418 4.63634 15.2 4.63634H0.8C0.358172 4.63634 0 4.29037 0 3.86361Z" fill="#EF4444"/>
<path fill-rule="evenodd" clip-rule="evenodd" d="M6.39961 1.54545C6.18744 1.54545 5.98395 1.62687 5.83392 1.77178C5.68389 1.9167 5.59961 2.11324 5.59961 2.31818V3.09091H10.3996V2.31818C10.3996 2.11324 10.3153 1.9167 10.1653 1.77178C10.0153 1.62687 9.81178 1.54545 9.59961 1.54545H6.39961ZM11.9996 3.09091V2.31818C11.9996 1.70336 11.7468 1.11372 11.2967 0.67898C10.8466 0.244236 10.2361 0 9.59961 0H6.39961C5.76309 0 5.15264 0.244236 4.70255 0.67898C4.25247 1.11372 3.99961 1.70336 3.99961 2.31818V3.09091H2.39961C1.95778 3.09091 1.59961 3.43687 1.59961 3.86364V14.6818C1.59961 15.2966 1.85247 15.8863 2.30255 16.321C2.75264 16.7558 3.36309 17 3.99961 17H11.9996C12.6361 17 13.2466 16.7558 13.6967 16.321C14.1468 15.8863 14.3996 15.2966 14.3996 14.6818V3.86364C14.3996 3.43687 14.0414 3.09091 13.5996 3.09091H11.9996ZM3.19961 4.63636V14.6818C3.19961 14.8868 3.28389 15.0833 3.43392 15.2282C3.58395 15.3731 3.78744 15.4545 3.99961 15.4545H11.9996C12.2118 15.4545 12.4153 15.3731 12.5653 15.2282C12.7153 15.0833 12.7996 14.8868 12.7996 14.6818V4.63636H3.19961Z" fill="#EF4444"/>
<path fill-rule="evenodd" clip-rule="evenodd" d="M6.39961 6.95447C6.84144 6.95447 7.19961 7.30043 7.19961 7.72719V12.3636C7.19961 12.7903 6.84144 13.1363 6.39961 13.1363C5.95778 13.1363 5.59961 12.7903 5.59961 12.3636V7.72719C5.59961 7.30043 5.95778 6.95447 6.39961 6.95447Z" fill="#EF4444"/>
<path fill-rule="evenodd" clip-rule="evenodd" d="M9.5998 6.95447C10.0416 6.95447 10.3998 7.30043 10.3998 7.72719V12.3636C10.3998 12.7903 10.0416 13.1363 9.5998 13.1363C9.15798 13.1363 8.7998 12.7903 8.7998 12.3636V7.72719C8.7998 7.30043 9.15798 6.95447 9.5998 6.95447Z" fill="#EF4444"/>
</svg>
