<svg width="21" height="14" viewBox="0 0 21 14" xmlns="http://www.w3.org/2000/svg">
<path d="M8.4 0C5.68641 0 3.51422 2.16761 3.39937 4.87879C1.43555 5.42069 0 7.21046 0 9.33333C0 11.8987 2.08031 14 4.62 14H17.22C19.297 14 21 12.2798 21 10.1818C21 8.52794 19.909 7.12429 18.4406 6.62879C18.352 4.14134 16.3423 2.12121 13.86 2.12121C13.4236 2.12121 13.0167 2.23059 12.6131 2.34659C11.7108 0.959517 10.1719 0 8.4 0ZM8.4 0.848485C9.96516 0.848485 11.3367 1.73674 12.0619 3.00947L12.2456 3.31439L12.5737 3.19508C12.9937 3.04096 13.4023 2.9697 13.86 2.9697C15.9403 2.9697 17.64 4.68655 17.64 6.78788V7.25189L17.9681 7.33144C19.2002 7.62476 20.16 8.81132 20.16 10.1818C20.16 11.8175 18.8393 13.1515 17.22 13.1515H4.62C2.53969 13.1515 0.84 11.4347 0.84 9.33333C0.84 7.49716 2.12461 5.93774 3.85875 5.5947L4.2 5.52841V5.09091C4.2 2.7294 6.06211 0.848485 8.4 0.848485ZM10.08 5.09091V9.99621L8.28187 8.17992L7.67812 8.78977L10.1981 11.3352L10.5 11.6269L10.8019 11.3352L13.3219 8.78977L12.7181 8.17992L10.92 9.99621V5.09091H10.08Z"/>
</svg>
