<svg width="44" height="44" viewBox="0 0 44 44" fill="none" xmlns="http://www.w3.org/2000/svg">
<path d="M26.7405 6.97827L28.9416 5.87665C29.5958 5.54924 30.3789 5.95661 30.4863 6.68023L30.8479 9.11497C30.9304 9.67099 31.4273 10.0696 31.988 10.0295L34.4432 9.85409C35.1729 9.80196 35.7405 10.478 35.5628 11.1877L34.9651 13.5754C34.8286 14.1207 35.1351 14.6791 35.6685 14.8566L38.0039 15.6341C38.698 15.8652 38.9637 16.707 38.528 17.2946L37.062 19.2719C36.7272 19.7234 36.7967 20.3566 37.2215 20.7248L39.0816 22.3368C39.6344 22.8159 39.5578 23.6953 38.9303 24.0715L36.8193 25.3372C36.3372 25.6263 36.1591 26.2379 36.4107 26.7406L37.5123 28.9417C37.8397 29.5959 37.4323 30.379 36.7087 30.4864L34.274 30.848C33.718 30.9305 33.3194 31.4274 33.3594 31.9881L33.5348 34.4433C33.587 35.173 32.911 35.7406 32.2013 35.5629L29.8135 34.9652C29.2683 34.8287 28.7098 35.1352 28.5323 35.6686L27.7548 38.004C27.5237 38.6981 26.682 38.9637 26.0943 38.528L24.117 37.0621C23.6655 36.7273 23.0323 36.7968 22.6642 37.2216L21.0521 39.0817C20.573 39.6345 19.6936 39.5579 19.3175 38.9304L18.0517 36.8194C17.7627 36.3373 17.1511 36.1592 16.6484 36.4108L14.4472 37.5124C13.793 37.8398 13.0099 37.4324 12.9025 36.7088L12.541 34.2741C12.4584 33.718 11.9615 33.3195 11.4008 33.3595L8.94566 33.5349C8.21596 33.5871 7.64837 32.911 7.82603 32.2014L8.42376 29.8136C8.56027 29.2683 8.25371 28.7099 7.72038 28.5324L5.38497 27.7549C4.69086 27.5238 4.42519 26.682 4.86089 26.0944L6.32688 24.1171C6.66167 23.6656 6.59214 23.0324 6.16735 22.6642L4.30724 21.0522C3.7544 20.5731 3.83109 19.6937 4.45851 19.3176L6.56957 18.0518C7.05167 17.7628 7.22975 17.1511 6.97818 16.6485L5.87656 14.4473C5.54915 13.7931 5.95652 13.01 6.68014 12.9026L9.11488 12.5411C9.6709 12.4585 10.0695 11.9616 10.0294 11.4009L9.854 8.94574C9.80187 8.21605 10.4779 7.64846 11.1876 7.82612L13.5753 8.42385C14.1206 8.56036 14.679 8.2538 14.8566 7.72047L15.634 5.38506C15.8651 4.69095 16.7069 4.42528 17.2946 4.86098L19.2718 6.32697C19.7233 6.66176 20.3566 6.59223 20.7247 6.16744L22.3367 4.30733C22.8158 3.75449 23.6952 3.83118 24.0714 4.4586L25.3371 6.56966C25.6262 7.05176 26.2378 7.22984 26.7405 6.97827Z" fill="#F05B2A"/>
<path d="M14.3537 21.8233L11.4521 20.9784L10.5228 24.17L9.11535 23.7603L11.3518 16.0792L16.1525 17.477L15.8068 18.664L12.4136 17.676L11.7977 19.7914L14.6993 20.6363L14.3537 21.8233Z" fill="#FCFCFC"/>
<path d="M17.2482 22.7977L16.3542 25.868L14.8761 25.4376L17.1125 17.7566L20.0081 18.5997C20.8586 18.8473 21.4436 19.2237 21.7633 19.7288C22.083 20.2339 22.1359 20.8539 21.9218 21.589C21.7969 22.0182 21.5874 22.3386 21.2932 22.5505C20.9989 22.7624 20.6198 22.8924 20.1555 22.9403L20.1509 22.9562C20.5454 23.2235 20.7886 23.5358 20.8805 23.8925C20.9724 24.2492 20.9493 24.6651 20.8111 25.1399L20.6467 25.7043C20.5843 25.9188 20.5479 26.1448 20.5373 26.3821C20.5266 26.6193 20.5742 26.8143 20.6799 26.9673L20.6369 27.115L19.1233 26.6743C19.0186 26.5179 18.9843 26.3027 19.0201 26.029C19.0559 25.7553 19.1081 25.5004 19.1767 25.2649L19.3349 24.7215C19.4496 24.3277 19.4452 24.0002 19.3217 23.7391C19.1981 23.4779 18.9509 23.2935 18.5796 23.1854L17.2482 22.7977ZM17.5938 21.6107L18.8695 21.9822C19.2914 22.105 19.6289 22.106 19.8818 21.9851C20.1348 21.8641 20.3146 21.6209 20.4211 21.2551C20.5265 20.8929 20.5143 20.5832 20.3841 20.3258C20.254 20.0685 19.9883 19.8815 19.5866 19.7645L18.2451 19.374L17.5938 21.6107Z" fill="#FCFCFC"/>
<path d="M25.9294 24.9935L23.0259 24.1481L22.3869 26.3427L25.7815 27.3311L25.4375 28.5128L20.6368 27.115L22.8733 19.434L27.6643 20.8289L27.3187 22.0159L23.9337 21.0303L23.3715 22.9611L26.275 23.8065L25.9294 24.9935Z" fill="#FCFCFC"/>
<path d="M31.6901 26.6707L28.7866 25.8253L28.1477 28.0199L31.5423 29.0083L31.1982 30.19L26.3976 28.7922L28.634 21.1112L33.425 22.5062L33.0794 23.6932L29.6944 22.7076L29.1322 24.6384L32.0357 25.4838L31.6901 26.6707Z" fill="#FCFCFC"/>
</svg>
