<svg width="40" height="33" viewBox="0 0 40 33" xmlns="http://www.w3.org/2000/svg">
<path fill-rule="evenodd" clip-rule="evenodd" d="M17.5285 0.0993023C14.4414 0.450675 11.2563 1.78268 8.8807 3.71563C7.67297 4.69834 6.89544 5.52669 5.75365 7.04738L5.42839 7.48067L5.76131 7.47986C6.01519 7.47928 6.16331 7.37749 6.38456 7.05177C6.74187 6.5258 8.62566 4.54929 9.06991 4.23443L9.39494 4.00415L10.2694 4.48181C10.7504 4.74456 11.144 4.98663 11.144 5.01979C11.144 5.05284 10.9433 5.32113 10.6981 5.61589C10.1893 6.22747 9.40272 7.37645 9.40272 7.50805C9.40272 7.55647 9.5051 7.59622 9.63036 7.59622C9.77685 7.59622 10.0852 7.29776 10.4956 6.75851C10.8464 6.29772 11.2583 5.77407 11.4108 5.59486L11.6883 5.26891L13.0975 5.76818C13.906 6.05461 14.5076 6.331 14.5086 6.4165C14.5096 6.49842 14.4059 6.76937 14.2782 7.01849C13.9875 7.58547 13.9883 7.59622 14.3164 7.59622C14.5278 7.59622 14.647 7.46808 14.8631 7.0089C15.1196 6.46387 15.1637 6.42644 15.4753 6.48837C15.6598 6.52511 16.2888 6.61212 16.8729 6.68156C19.1386 6.95113 19.0925 6.94015 19.1328 7.22139C19.188 7.60777 19.7341 7.58986 19.7341 7.20163C19.7341 6.93726 19.7812 6.91866 20.6337 6.8461C21.1285 6.80392 21.9966 6.69288 22.5626 6.59929C23.1286 6.50558 23.6054 6.44469 23.6221 6.46376C23.6388 6.48294 23.7644 6.71946 23.9011 6.9896C24.0941 7.37032 24.2151 7.48067 24.4402 7.48067H24.7304L24.4958 7.02311C24.3669 6.77145 24.2613 6.49241 24.2613 6.4031C24.2613 6.29945 24.7694 6.06432 25.6663 5.75281L27.0712 5.26486L27.3988 5.57729C27.579 5.74911 27.9785 6.24272 28.2865 6.67417C28.7835 7.37021 29.2283 7.69766 29.419 7.50782C29.483 7.44427 28.6993 6.26167 28.1298 5.56227C27.9175 5.30149 27.7449 5.04151 27.746 4.98455C27.7473 4.92759 28.0929 4.68032 28.5139 4.43513C29.1407 4.07036 29.3246 4.01085 29.5274 4.10745C29.9739 4.32005 31.2816 5.59024 32.037 6.54487C32.6007 7.25732 32.845 7.48067 33.0601 7.48067C33.3403 7.48067 33.3409 7.47813 33.1384 7.16292C31.917 5.26082 29.2557 2.92854 27.0308 1.81064C24.1541 0.365172 20.6837 -0.259812 17.5285 0.0993023ZM21.7436 0.675064C22.8493 0.838675 23.0153 0.940471 22.6604 1.23707C21.8859 1.88424 19.8535 2.27687 18.4135 2.05745C17.124 1.8609 15.6804 1.19363 15.9546 0.920713C16.2762 0.600422 20.1341 0.436694 21.7436 0.675064ZM15.2144 1.33956L15.4798 1.55344L14.5873 2.15289C14.0965 2.48254 13.2304 3.14022 12.6627 3.61442C12.0949 4.0885 11.5723 4.4765 11.5015 4.4765C11.3407 4.4765 10.1217 3.79744 10.0368 3.66052C9.88272 3.41244 12.1949 2.10586 13.93 1.46066C14.9814 1.06965 14.8902 1.07832 15.2144 1.33956ZM24.9195 1.48527C25.4833 1.68308 26.1535 1.94802 26.4089 2.07408C27.2213 2.47526 28.7908 3.48778 28.7569 3.589C28.7389 3.64261 28.3798 3.87485 27.959 4.10502L27.1937 4.52364L26.3175 3.72014C25.8357 3.27818 24.9964 2.63066 24.4526 2.28114C23.4467 1.63455 23.3409 1.51034 23.5881 1.26434C23.7743 1.07901 23.7499 1.07497 24.9195 1.48527ZM16.6057 2.11083C16.794 2.20777 16.9481 2.3329 16.9481 2.38906C16.9481 2.4451 16.6217 2.98262 16.2226 3.58357C15.8236 4.1844 15.3541 4.91823 15.1791 5.21425C14.8136 5.83323 14.8729 5.83184 13.2625 5.25805C12.7358 5.0704 12.3048 4.85156 12.3048 4.77171C12.3048 4.39827 15.6097 1.93578 16.1123 1.93485C16.1952 1.93462 16.4173 2.01388 16.6057 2.11083ZM23.6206 2.35948C25.016 3.20793 26.7057 4.62647 26.525 4.79771C26.3929 4.92273 25.0043 5.44407 24.3446 5.61635C23.9113 5.72947 23.9015 5.7245 23.6059 5.24811C23.4411 4.98258 23.1445 4.50538 22.9467 4.18763C22.7489 3.86989 22.3892 3.33919 22.1474 3.00827C21.9054 2.67734 21.7075 2.37577 21.7075 2.33822C21.7075 2.23631 22.4278 1.94421 22.6919 1.93901C22.8183 1.93659 23.2362 2.12573 23.6206 2.35948ZM19.0116 2.69237C19.1251 2.72761 19.1523 3.15073 19.1277 4.50296L19.0956 6.26745L18.6313 6.30523C18.2229 6.33839 17.0846 6.2173 15.9324 6.0181C15.6727 5.97315 15.5551 5.88881 15.5551 5.74726C15.5551 5.54055 16.6812 3.75457 17.3233 2.9431C17.6605 2.51674 17.6808 2.50888 18.2658 2.57694C18.5945 2.61518 18.9301 2.66706 19.0116 2.69237ZM21.7681 3.40759C22.5627 4.49059 23.2579 5.70301 23.1676 5.84848C23.0854 5.98078 21.9543 6.17813 20.6888 6.28097L19.7281 6.35896L19.7601 4.52225L19.7921 2.68555L20.2565 2.6153C20.5119 2.57659 20.8087 2.53765 20.9159 2.52864C21.0356 2.51859 21.3654 2.85887 21.7681 3.40759ZM31.2263 9.05671C29.0827 9.23996 26.7845 10.3145 25.8712 11.5607C24.8087 13.0103 24.4616 14.2456 24.453 16.6087C24.446 18.5367 24.6056 19.3004 25.2851 20.5903C26.0758 22.0916 27.5855 23.1962 29.6658 23.7955C30.9473 24.1648 33.5073 24.1647 34.8592 23.7954C37.5435 23.0622 38.9884 21.6614 39.7156 19.0878C40.2443 17.2157 40.0118 14.2053 39.2174 12.6388C38.3572 10.9426 36.7111 9.78672 34.4244 9.27312C33.6425 9.09761 32.0271 8.98819 31.2263 9.05671ZM13.5237 9.31668C12.0036 9.75737 11.0282 10.5143 10.4922 11.6695C10.1903 12.3202 10.1573 12.511 10.1573 13.6046C10.1573 14.6973 10.1881 14.876 10.4682 15.4043C10.8598 16.1429 11.9646 17.1694 12.7817 17.554C13.126 17.716 14.5568 18.1935 15.9614 18.6152C19.3431 19.6302 19.6169 19.7581 19.4319 20.2378C19.2265 20.7705 16.7216 20.9035 15.5494 20.444C14.5774 20.0628 13.853 19.5593 13.4422 18.9793L13.0727 18.4575H11.6439H10.2153V21.115V23.7725H11.7824H13.3495V23.3103C13.3495 23.0561 13.3963 22.8482 13.4536 22.8482C13.5108 22.8482 13.9484 23.0329 14.4261 23.2587C16.591 24.2821 19.3828 24.3727 21.3352 23.4831C22.2616 23.0609 22.7144 22.6832 23.2111 21.9181C24.3425 20.1758 24.0886 17.9428 22.5896 16.4526C21.7095 15.5776 20.9083 15.2231 17.8357 14.3489C15.0947 13.5692 14.5104 13.3182 14.5104 12.9208C14.5104 12.4753 14.9415 12.2753 15.8867 12.2824C17.5538 12.2946 18.9176 12.7975 19.9663 13.7865L20.6047 14.3888L22.0267 14.407L23.4488 14.4253V11.9352V9.44494H21.9397H20.4306V9.78475C20.4306 9.97171 20.3806 10.1553 20.3195 10.193C20.2583 10.2305 19.9281 10.1039 19.5854 9.91139C18.5763 9.34453 17.3759 9.09703 15.6816 9.10651C14.6548 9.11228 14.0131 9.17479 13.5237 9.31668ZM0 10.947V12.6802H1.04475H2.08949V16.4932V20.3062H1.04475H0V22.0394V23.7725H4.64332H9.28664V22.0394V20.3062H8.18222H7.07793L7.10846 16.5221L7.1391 12.738L8.21287 12.7047L9.28664 12.6715V10.9426V9.21385H4.64332H0V10.947ZM33.1543 12.7352C34.445 13.1167 34.7594 13.9937 34.6864 17.0074C34.6439 18.7608 34.6104 19.0313 34.3819 19.467C34.0042 20.1874 33.3958 20.4687 32.213 20.4701C30.4017 20.4723 29.8902 19.8128 29.7564 17.302C29.6813 15.8934 29.8557 14.12 30.1192 13.6128C30.3456 13.1772 30.7382 12.9134 31.441 12.725C32.1636 12.5313 32.4704 12.5331 33.1543 12.7352ZM5.57198 25.518C5.57198 25.7437 7.02685 27.5016 7.9092 28.3423C9.81098 30.154 11.791 31.3516 14.2026 32.1487C15.9124 32.7139 17.0334 32.9167 18.8359 32.9866C23.4915 33.1673 27.8178 31.5218 31.0617 28.3366C31.993 27.422 33.4319 25.6798 33.4319 25.4665C33.4319 25.4245 33.3131 25.3902 33.1679 25.3902C32.978 25.3902 32.758 25.5902 32.3844 26.1025C31.8161 26.8816 29.7764 28.9721 29.5844 28.9721C29.4812 28.9721 28.346 28.3679 27.876 28.0629C27.7528 27.9829 27.8321 27.8211 28.2374 27.3258C28.9137 26.4993 29.4851 25.6694 29.4851 25.5138C29.4851 25.4457 29.3848 25.3902 29.2622 25.3902C29.1215 25.3902 28.8264 25.6778 28.4618 26.1701C28.1441 26.599 27.7351 27.121 27.5529 27.33L27.2215 27.7101L25.8285 27.2228C25.0623 26.9549 24.4149 26.72 24.3897 26.701C24.3533 26.6734 24.5954 25.9889 24.8224 25.4774C24.8437 25.4294 24.7351 25.3902 24.581 25.3902C24.358 25.3902 24.2447 25.5097 24.025 25.9768C23.779 26.4994 23.7168 26.5564 23.4537 26.4993C23.2913 26.464 22.4533 26.3493 21.5914 26.2444C19.6446 26.0073 19.7341 26.0348 19.7341 25.6746C19.7341 25.4296 19.6862 25.3809 19.4747 25.411C19.288 25.4376 19.2149 25.5268 19.2135 25.7296C19.2117 26.0042 19.1721 26.0164 17.6446 26.2119C15.0532 26.5436 15.311 26.57 14.976 25.9393C14.7597 25.5324 14.6167 25.3907 14.4218 25.3905C14.1618 25.3902 14.161 25.3947 14.3491 25.8235C14.7326 26.6974 14.7357 26.6913 13.7352 27.0257C13.2358 27.1927 12.5861 27.4216 12.2913 27.5343L11.7555 27.7394L11.3947 27.3447C11.1962 27.1276 10.7843 26.6013 10.4795 26.1751C10.0824 25.62 9.85103 25.3987 9.66391 25.3951C9.5202 25.3924 9.40272 25.4197 9.40272 25.456C9.40272 25.5512 10.0596 26.5001 10.6421 27.246C10.9182 27.5995 11.1429 27.9375 11.1418 27.9971C11.139 28.1301 9.71278 28.9721 9.49036 28.9721C9.22685 28.9721 7.59101 27.3965 6.77669 26.3585C6.29471 25.7441 5.93567 25.3902 5.79451 25.3902C5.67216 25.3902 5.57198 25.4477 5.57198 25.518ZM19.244 28.4431C19.2616 29.3915 19.2355 30.2045 19.186 30.2498C19.1363 30.2952 18.7975 30.3676 18.4333 30.4109L17.7708 30.4895L17.1977 29.7127C16.4802 28.74 15.6712 27.4031 15.6712 27.19C15.6712 27.08 15.9207 26.9893 16.4548 26.9052C17.7033 26.7085 17.898 26.69 18.5733 26.7049L19.2117 26.7189L19.244 28.4431ZM22.668 26.911C23.0367 26.9813 23.361 27.0755 23.3887 27.1201C23.4548 27.2265 22.6586 28.5771 21.9016 29.6427L21.3012 30.4877L20.6054 30.4142C20.2227 30.3738 19.8915 30.3227 19.8693 30.3006C19.7874 30.219 19.7033 27.0233 19.778 26.8294C19.8471 26.6504 19.9731 26.6369 20.9266 26.7058C21.5157 26.7483 22.2993 26.8406 22.668 26.911ZM15.1277 27.4989C15.4385 28.0092 16.8412 30.1898 17.0173 30.4362C17.1904 30.6785 17.1777 30.6955 16.6486 30.9285L16.1007 31.1697L15.2765 30.6556C14.4415 30.1347 12.7115 28.8007 12.4247 28.4567C12.3216 28.3331 12.3073 28.23 12.3829 28.1548C12.5072 28.0311 14.5936 27.2541 14.8269 27.2447C14.9053 27.2414 15.0406 27.3558 15.1277 27.4989ZM25.2204 27.5826C26.8799 28.1117 26.8734 28.099 25.9278 28.9633C25.0696 29.7477 23.1697 31.0519 22.8852 31.0519C22.5738 31.0519 21.9397 30.7779 21.9397 30.6434C21.9397 30.5714 22.1477 30.2168 22.4019 29.8556C22.6561 29.4943 23.1308 28.7578 23.4568 28.2188C23.7826 27.6799 24.0703 27.2389 24.0959 27.2389C24.1215 27.2389 24.6276 27.3936 25.2204 27.5826ZM12.5959 29.2898C13.0637 29.7187 13.8914 30.3557 14.4351 30.7052C14.979 31.0548 15.4273 31.3993 15.4315 31.4711C15.4357 31.5427 15.3599 31.6667 15.2631 31.7466C15.1198 31.865 14.9435 31.8451 14.3141 31.6394C12.7077 31.1145 10.0356 29.6819 10.1311 29.3967C10.1838 29.2393 11.372 28.5206 11.5898 28.5144C11.6754 28.512 12.1281 28.8609 12.5959 29.2898ZM28.215 28.8854C28.5927 29.092 28.9026 29.3223 28.9033 29.3971C28.9065 29.7171 26.2559 31.1277 24.6898 31.6394C24.0604 31.8451 23.8841 31.865 23.7408 31.7466C23.4448 31.5021 23.5463 31.3622 24.4452 30.7757C24.9216 30.465 25.741 29.8284 26.2663 29.361C26.7917 28.8935 27.2904 28.5108 27.3748 28.5105C27.4591 28.5101 27.8372 28.6788 28.215 28.8854ZM21.4753 31.1723C22.3486 31.4281 23.0218 31.807 22.9554 32.0051C22.7957 32.4822 18.0501 32.6235 16.4548 32.1988C15.9454 32.0631 15.9135 31.9564 16.3059 31.7004C17.5834 30.8672 19.6974 30.6513 21.4753 31.1723Z"/>
</svg>
