<svg width="64" height="50" viewBox="0 0 64 50" xmlns="http://www.w3.org/2000/svg">
<path d="M57.2982 22.6H22.9123C20.1993 22.6 18 24.749 18 27.4V44.2C18 46.8509 20.1993 49 22.9123 49H57.2982C60.0112 49 62.2105 46.8509 62.2105 44.2V27.4C62.2105 24.749 60.0112 22.6 57.2982 22.6Z" stroke-width="2" stroke-linecap="round" stroke-linejoin="round"/>
<path d="M27.8242 22.6V13C27.8242 9.8174 29.1181 6.76515 31.4212 4.51472C33.7242 2.26428 36.8479 1 40.1049 1C43.362 1 46.4856 2.26428 48.7887 4.51472C51.0918 6.76515 52.3856 9.8174 52.3856 13V22.6" stroke-width="2" stroke-linecap="round" stroke-linejoin="round"/>
</svg>
