<svg width="63" height="50" viewBox="0 0 63 50" xmlns="http://www.w3.org/2000/svg">
<path d="M38 0C24.2061 0 13.0001 11.2061 13.0001 25C12.9952 25.4492 13.2296 25.8691 13.6202 26.0986C14.0108 26.3232 14.4893 26.3232 14.8799 26.0986C15.2706 25.8691 15.5049 25.4492 15.5001 25C15.5001 12.5586 25.5586 2.5 38 2.5C45.8076 2.5 52.6581 6.47461 56.6962 12.5H47.9999C47.5507 12.4951 47.1308 12.7295 46.9013 13.1201C46.6767 13.5107 46.6767 13.9893 46.9013 14.3799C47.1308 14.7705 47.5507 15.0049 47.9999 15H60.4999V2.5C60.5048 2.16309 60.3729 1.83594 60.1337 1.59668C59.8944 1.35742 59.5673 1.22559 59.2304 1.23047C58.5419 1.24512 57.9901 1.81152 57.9999 2.5V10.0146C53.4345 3.93555 46.1738 0 38 0ZM61.7303 23.7305C61.0419 23.7451 60.4901 24.3115 60.4999 25C60.4999 37.4414 50.4413 47.5 38 47.5C30.1924 47.5 23.3369 43.5254 19.3038 37.5H28C28.4492 37.5098 28.8692 37.2705 29.0986 36.8848C29.3233 36.4941 29.3233 36.0107 29.0986 35.6201C28.8692 35.2344 28.4492 34.9951 28 35H17.3067C17.1456 34.9707 16.9844 34.9707 16.8233 35H15.5001V47.5C15.4952 47.9492 15.7296 48.3691 16.1202 48.5986C16.5108 48.8232 16.9893 48.8232 17.3799 48.5986C17.7706 48.3691 18.0049 47.9492 18.0001 47.5V39.9805C22.5606 46.0596 29.8262 50 38 50C51.7939 50 62.9999 38.7939 62.9999 25C63.0048 24.6631 62.8729 24.3359 62.6337 24.0967C62.3944 23.8574 62.0673 23.7256 61.7303 23.7305Z"/>
</svg>
