<svg width="23" height="23" viewBox="0 0 23 23" xmlns="http://www.w3.org/2000/svg">
<path fill-rule="evenodd" clip-rule="evenodd" d="M10.35 2.30001C5.90412 2.30001 2.30001 5.90412 2.30001 10.35C2.30001 14.7959 5.90412 18.4 10.35 18.4C14.7959 18.4 18.4 14.7959 18.4 10.35C18.4 5.90412 14.7959 2.30001 10.35 2.30001ZM0 10.35C0 4.63386 4.63386 0 10.35 0C16.0662 0 20.7001 4.63386 20.7001 10.35C20.7001 16.0662 16.0662 20.7001 10.35 20.7001C4.63386 20.7001 0 16.0662 0 10.35Z"/>
<path fill-rule="evenodd" clip-rule="evenodd" d="M16.0348 16.0343C16.4839 15.5852 17.2121 15.5852 17.6612 16.0343L22.6637 21.0369C23.1128 21.486 23.1128 22.2141 22.6637 22.6632C22.2146 23.1123 21.4864 23.1123 21.0373 22.6632L16.0348 17.6607C15.5857 17.2116 15.5857 16.4834 16.0348 16.0343Z"/>
</svg>
