<svg width="61" height="69" viewBox="0 0 61 69" fill="none" xmlns="http://www.w3.org/2000/svg">
<path d="M36.2324 64.727L42.6453 62.6704V61.0322L36.2324 63.0889V64.727Z" fill="#0E151B"/>
<path d="M36.2324 61.728L42.6453 59.6713V58.0332L36.2324 60.0898V61.728Z" fill="#0E151B"/>
<path d="M57.3053 41.4782L57.3044 41.4772C56.9289 41.0594 56.4455 40.7523 55.907 40.5895L35.5542 34.4591C34.5681 34.1595 33.5147 34.1595 32.5285 34.4589L12.1738 40.5899C11.6356 40.7528 11.1527 41.0597 10.7775 41.4772L10.7766 41.4783L10.7756 41.4792C10.2763 42.0377 10.0003 42.7595 10 43.5075V59.6355C9.99739 60.29 10.2074 60.9278 10.5987 61.4534C10.99 61.9791 11.5416 62.3644 12.1709 62.5518L32.52 68.7105C33.0127 68.8606 33.525 68.9367 34.0402 68.9365C34.1107 68.9362 34.1809 68.9268 34.2489 68.9084C34.2472 68.9151 34.2464 68.9223 34.2446 68.929C34.6903 68.9132 35.132 68.8399 35.5587 68.711L55.9257 62.5465C56.5511 62.3565 57.0984 61.9707 57.4865 61.4464C57.8746 60.9221 58.0828 60.287 58.0802 59.6355V43.5075C58.0805 42.7597 57.805 42.0379 57.3062 41.4792L57.3053 41.4782ZM33.2318 67.2334C33.1511 67.2149 33.071 67.1935 32.9916 67.1692L12.6407 61.01C12.344 60.9217 12.084 60.7402 11.8994 60.4924C11.7149 60.2447 11.6158 59.944 11.6169 59.6355V43.5075C11.6169 43.3201 11.6539 43.1345 11.7256 42.9613L32.7917 49.3378L32.8684 49.361L33.2318 49.471V67.2334ZM34.0402 48.0317L13.5982 41.8441L32.9975 36.0009C33.6781 35.7944 34.4051 35.7946 35.0857 36.0013L54.4835 41.8441L48.1153 43.7716L38.5936 40.9117C38.4896 40.8795 38.3784 40.8785 38.2739 40.9088L33.4738 42.267C33.4124 42.2845 33.3583 42.3213 33.3196 42.372C33.2809 42.4227 33.2597 42.4846 33.2592 42.5483C33.2587 42.612 33.2789 42.6741 33.3167 42.7254C33.3546 42.7767 33.4081 42.8144 33.4693 42.8329L42.3895 45.5047L34.0402 48.0317ZM56.4634 59.6355C56.4649 59.9418 56.3674 60.2404 56.1853 60.4872C56.0032 60.7339 55.7463 60.9157 55.4525 61.0057L35.0865 67.1699C35.008 67.1939 34.9287 67.2152 34.8487 67.2336V49.471L43.7553 46.7753V53.3706C43.7553 53.4583 43.7756 53.5448 43.8146 53.6234C43.8537 53.702 43.9104 53.7706 43.9804 53.8238C44.0504 53.8769 44.1317 53.9133 44.2181 53.93C44.3045 53.9467 44.3936 53.9433 44.4785 53.9201L49.0902 52.6543C49.211 52.6212 49.3175 52.5495 49.3933 52.4502C49.4692 52.3509 49.5103 52.2296 49.5101 52.1048V45.2127C49.5102 45.154 49.5064 45.0953 49.4989 45.0371V45.0369L56.4633 42.9289L56.4634 59.6355Z" fill="#0E151B"/>
<path d="M31.3396 15.9883H25.5283V21.7795H31.3396V15.9883ZM29.7522 20.1976H27.1157V17.5702H29.7522V20.1976Z" fill="#0E151B"/>
<path d="M42.5408 4.52441H36.7295V10.3156H42.5408V4.52441ZM40.9534 8.73373H38.3169V6.10633H40.9534V8.73373Z" fill="#0E151B"/>
<path d="M25.5283 10.3156H31.3396V4.52441H25.5283V10.3156ZM27.1157 6.10633H29.7522V8.73373H27.1157V6.10633Z" fill="#0E151B"/>
<path d="M33.8021 4.52441H32.3896V5.93203H33.8021V4.52441Z" fill="#0E151B"/>
<path d="M26.936 11.2227H25.5234V12.6303H26.936V11.2227Z" fill="#0E151B"/>
<path d="M33.5208 14.5811H32.1084V15.9887H33.5208V14.5811Z" fill="#0E151B"/>
<path d="M30.0342 12.6309H33.096C33.1888 12.6309 33.2806 12.6127 33.3663 12.5773C33.452 12.542 33.5299 12.4901 33.5954 12.4248C33.661 12.3594 33.713 12.2818 33.7485 12.1964C33.784 12.111 33.8023 12.0195 33.8023 11.9271V8.64179H35.1029C35.1956 8.64179 35.2875 8.62359 35.3732 8.58822C35.4589 8.55285 35.5367 8.50101 35.6023 8.43565C35.6679 8.3703 35.7199 8.29271 35.7554 8.20732C35.7909 8.12193 35.8092 8.03041 35.8092 7.93799V5.93262H34.3966V7.23416H33.096C33.0033 7.23416 32.9115 7.25236 32.8258 7.28773C32.7401 7.3231 32.6622 7.37495 32.5967 7.4403C32.5311 7.50566 32.4791 7.58324 32.4436 7.66863C32.4081 7.75402 32.3898 7.84554 32.3899 7.93796V11.2233H30.0342V12.6309Z" fill="#0E151B"/>
<path d="M39.6351 14.9996H42.5408V13.592H40.3414V11.9265C40.3414 11.834 40.3231 11.7425 40.2876 11.6571C40.2521 11.5717 40.2001 11.4942 40.1345 11.4288C40.0689 11.3634 39.9911 11.3116 39.9054 11.2762C39.8197 11.2409 39.7278 11.2227 39.6351 11.2227H36.7295V12.6303H38.9289V14.2958C38.9289 14.3882 38.9471 14.4797 38.9826 14.5651C39.0181 14.6505 39.0701 14.7281 39.1357 14.7935C39.2013 14.8588 39.2791 14.9106 39.3648 14.946C39.4505 14.9814 39.5424 14.9996 39.6351 14.9996Z" fill="#0E151B"/>
<path d="M35.8872 18.8839V15.9883H34.4747V18.1801H32.8135V19.5876H35.1809C35.3682 19.5876 35.5479 19.5135 35.6803 19.3815C35.8128 19.2495 35.8872 19.0705 35.8872 18.8839Z" fill="#0E151B"/>
<path d="M29.7518 13.5918H27.1152V14.9994H29.7518V13.5918Z" fill="#0E151B"/>
<path d="M45.3452 2.0071V4.5155H46.9419V2.0071C46.9412 1.47496 46.7288 0.964802 46.3512 0.58853C45.9737 0.212259 45.4617 0.000604788 44.9277 0H42.4014V1.5912H44.9277C45.0384 1.59131 45.1445 1.63516 45.2228 1.71313C45.301 1.7911 45.345 1.89682 45.3452 2.0071Z" fill="#0E151B"/>
<path d="M22.8545 2.0071C22.8546 1.89683 22.8986 1.79112 22.9769 1.71315C23.0551 1.63518 23.1612 1.59133 23.2719 1.5912H25.7983V0H23.2719C22.7379 0.000624169 22.226 0.212287 21.8484 0.588556C21.4708 0.964826 21.2584 1.47498 21.2578 2.0071V4.5155H22.8546L22.8545 2.0071Z" fill="#0E151B"/>
<path d="M23.2719 25.9003H25.7983V24.3091H23.2719C23.1612 24.3089 23.0551 24.2651 22.9769 24.1871C22.8986 24.1091 22.8546 24.0034 22.8545 23.8931V21.3848H21.2578V23.8931C21.2584 24.4253 21.4708 24.9354 21.8484 25.3117C22.226 25.688 22.7379 25.8996 23.2719 25.9003Z" fill="#0E151B"/>
<path d="M49.609 16.5801C49.0245 16.5801 48.4457 16.6948 47.9057 16.9177C47.3657 17.1406 46.8751 17.4673 46.4618 17.8792C46.0485 18.291 45.7207 18.78 45.497 19.3181C45.2733 19.8562 45.1582 20.433 45.1582 21.0154C45.1582 22.9409 47.9083 26.2176 49.085 27.5314C49.1509 27.605 49.2316 27.6639 49.3219 27.7042C49.4122 27.7446 49.51 27.7654 49.609 27.7654C49.7079 27.7654 49.8057 27.7446 49.896 27.7042C49.9863 27.6639 50.0671 27.605 50.1329 27.5314C51.3096 26.2176 54.0597 22.9409 54.0597 21.0154C54.0597 19.8391 53.5908 18.711 52.7561 17.8792C51.9214 17.0474 50.7894 16.5801 49.609 16.5801ZM49.609 23.1117C49.1735 23.1117 48.7477 22.983 48.3856 22.7418C48.0235 22.5007 47.7413 22.158 47.5746 21.7571C47.408 21.3561 47.3644 20.9149 47.4493 20.4892C47.5343 20.0636 47.744 19.6726 48.052 19.3657C48.3599 19.0588 48.7523 18.8498 49.1794 18.7651C49.6065 18.6805 50.0493 18.7239 50.4516 18.89C50.854 19.0561 51.1979 19.3374 51.4398 19.6982C51.6818 20.0591 51.8109 20.4833 51.8109 20.9173C51.8109 21.4993 51.5789 22.0574 51.166 22.469C50.753 22.8805 50.193 23.1117 49.609 23.1117Z" fill="#0E151B"/>
<path d="M55.6093 29.687C56.6731 28.8458 57.5463 27.7899 58.1716 26.5886C58.7968 25.3872 59.1599 24.0676 59.237 22.7165C59.3141 21.3654 59.1034 20.0133 58.6189 18.7491C58.1344 17.4848 57.3869 16.3371 56.4257 15.3812C55.2851 14.2431 53.8755 13.4092 52.3267 12.9563C50.7779 12.5034 49.1397 12.446 47.5628 12.7895C46.9592 12.9446 46.3651 13.1347 45.7837 13.3587C44.6688 13.8387 43.6554 14.5249 42.7972 15.3812C42.6005 15.5772 42.4153 15.7802 42.2392 15.9882H38.1532V14.5806H36.7408L36.7295 21.7795H39.9851C39.9466 22.7213 40.0468 23.6637 40.2824 24.5766C40.2824 24.5766 40.5952 25.7053 40.9227 26.3263C41.4845 27.4924 42.2769 28.5334 43.2522 29.3869C44.2276 30.2404 45.3658 30.8889 46.5987 31.2934C47.8316 31.6979 49.1338 31.8502 50.4272 31.7411C51.7206 31.632 52.9785 31.2638 54.1257 30.6585L58.8405 36.3017L60.1962 35.1769L55.6093 29.687ZM40.1817 20.1976H38.3169V17.5701H40.9534V17.9508C40.6035 18.6649 40.3442 19.4196 40.1817 20.1976ZM49.6114 30.0175C47.79 30.0175 46.0249 29.3882 44.6169 28.2367C43.2089 27.0851 42.2451 25.4827 41.8898 23.7025C41.5344 21.9222 41.8095 20.0742 42.6681 18.4734C43.5267 16.8726 44.9158 15.618 46.5986 14.9234C48.2814 14.2287 50.1538 14.1371 51.8968 14.664C53.6398 15.1909 55.1456 16.3038 56.1575 17.813C57.1695 19.3222 57.625 21.1345 57.4464 22.9409C57.2679 24.7473 56.4664 26.4361 55.1784 27.7196C54.4491 28.4504 53.5815 29.0298 52.6259 29.4243C51.6703 29.8187 50.6457 30.0204 49.6114 30.0175Z" fill="#0E151B"/>
</svg>
